<?xml version="1.0" encoding="UTF-8" standalone="no"?>
<!DOCTYPE svg PUBLIC "-//W3C//DTD SVG 1.1//EN"
 "http://www.w3.org/Graphics/SVG/1.1/DTD/svg11.dtd">
<!-- Generated by graphviz version 9.0.0 (20230913.0819)
 -->
<!-- Title: WebK8S Pages: 1 -->
<svg width="406pt" height="419pt"
 viewBox="0.00 0.00 406.00 419.14" xmlns="http://www.w3.org/2000/svg" xmlns:xlink="http://www.w3.org/1999/xlink">
<g id="graph0" class="graph" transform="scale(1 1) rotate(0) translate(4 415.14)">
<title>WebK8S</title>
<polygon fill="white" stroke="none" points="-4,4 -4,-415.14 402,-415.14 402,4 -4,4"/>
<g id="clust1" class="cluster">
<title>cluster_k8s</title>
<polygon fill="none" stroke="black" points="8,-8 8,-346.5 390,-346.5 390,-8 8,-8"/>
<text text-anchor="middle" x="199" y="-329.2" font-family="Times,serif" font-size="14.00">Kubernetes Cluster</text>
</g>
<g id="clust2" class="cluster">
<title>cluster_worker_daemonset</title>
<polygon fill="none" stroke="black" points="80,-197 80,-314 382,-314 382,-197 80,-197"/>
<text text-anchor="middle" x="231" y="-296.7" font-family="Times,serif" font-size="14.00">worker DaemonSet</text>
</g>
<g id="clust3" class="cluster">
<title>cluster_worker_node_dc01</title>
<polygon fill="none" stroke="black" points="284,-205 284,-281.5 374,-281.5 374,-205 284,-205"/>
<text text-anchor="middle" x="329" y="-264.2" font-family="Times,serif" font-size="14.00">node dc01</text>
</g>
<g id="clust4" class="cluster">
<title>cluster_worker_node_dc02</title>
<polygon fill="none" stroke="black" points="186,-205 186,-281.5 276,-281.5 276,-205 186,-205"/>
<text text-anchor="middle" x="231" y="-264.2" font-family="Times,serif" font-size="14.00">node dc02</text>
</g>
<g id="clust5" class="cluster">
<title>cluster_worker_node_dc03</title>
<polygon fill="none" stroke="black" points="88,-205 88,-281.5 178,-281.5 178,-205 88,-205"/>
<text text-anchor="middle" x="133" y="-264.2" font-family="Times,serif" font-size="14.00">node dc03</text>
</g>
<g id="clust6" class="cluster">
<title>cluster_master_deployment</title>
<polygon fill="none" stroke="black" points="120,-72 120,-189 244,-189 244,-72 120,-72"/>
<text text-anchor="middle" x="182" y="-171.7" font-family="Times,serif" font-size="14.00">master Deployment</text>
</g>
<g id="clust7" class="cluster">
<title>cluster_master_node_dc01</title>
<polygon fill="none" stroke="black" points="138,-80 138,-156.5 226,-156.5 226,-80 138,-80"/>
<text text-anchor="middle" x="182" y="-139.2" font-family="Times,serif" font-size="14.00">node dc01</text>
</g>
<!-- dc01_worker -->
<g id="node1" class="node">
<title>dc01_worker</title>
<ellipse fill="none" stroke="black" cx="329" cy="-231" rx="37.02" ry="18"/>
<text text-anchor="middle" x="329" y="-225.95" font-family="Times,serif" font-size="14.00">worker</text>
</g>
<!-- dc01_master -->
<g id="node4" class="node">
<title>dc01_master</title>
<ellipse fill="none" stroke="black" cx="182" cy="-106" rx="36" ry="18"/>
<text text-anchor="middle" x="182" y="-100.95" font-family="Times,serif" font-size="14.00">master</text>
</g>
<!-- dc01_worker&#45;&gt;dc01_master -->
<g id="edge2" class="edge">
<title>dc01_worker&#45;&gt;dc01_master</title>
<path fill="none" stroke="black" d="M329,-212.56C329,-177.78 329,-106 329,-106 329,-106 229.85,-106 229.85,-106"/>
<polygon fill="black" stroke="black" points="229.85,-102.5 219.85,-106 229.85,-109.5 229.85,-102.5"/>
</g>
<!-- dc02_worker -->
<g id="node2" class="node">
<title>dc02_worker</title>
<ellipse fill="none" stroke="black" cx="231" cy="-231" rx="37.02" ry="18"/>
<text text-anchor="middle" x="231" y="-225.95" font-family="Times,serif" font-size="14.00">worker</text>
</g>
<!-- dc02_worker&#45;&gt;dc01_master -->
<g id="edge3" class="edge">
<title>dc02_worker&#45;&gt;dc01_master</title>
<path fill="none" stroke="black" d="M205.99,-217.62C205.99,-217.62 205.99,-131.17 205.99,-131.17"/>
<polygon fill="black" stroke="black" points="209.49,-131.17 205.99,-121.17 202.49,-131.17 209.49,-131.17"/>
</g>
<!-- dc03_worker -->
<g id="node3" class="node">
<title>dc03_worker</title>
<ellipse fill="none" stroke="black" cx="133" cy="-231" rx="37.02" ry="18"/>
<text text-anchor="middle" x="133" y="-225.95" font-family="Times,serif" font-size="14.00">worker</text>
</g>
<!-- dc03_worker&#45;&gt;dc01_master -->
<g id="edge4" class="edge">
<title>dc03_worker&#45;&gt;dc01_master</title>
<path fill="none" stroke="black" d="M158.01,-217.62C158.01,-217.62 158.01,-131.17 158.01,-131.17"/>
<polygon fill="black" stroke="black" points="161.51,-131.17 158.01,-121.17 154.51,-131.17 161.51,-131.17"/>
</g>
<!-- kubeapi -->
<g id="node5" class="node">
<title>kubeapi</title>
<polygon fill="none" stroke="black" points="233.12,-52 130.88,-52 130.88,-16 233.12,-16 233.12,-52"/>
<text text-anchor="middle" x="182" y="-28.95" font-family="Times,serif" font-size="14.00">Kubernetes API</text>
</g>
<!-- dc01_master&#45;&gt;kubeapi -->
<g id="edge1" class="edge">
<title>dc01_master&#45;&gt;kubeapi</title>
<path fill="none" stroke="black" d="M182,-87.83C182,-87.83 182,-63.93 182,-63.93"/>
<polygon fill="black" stroke="black" points="185.5,-63.93 182,-53.93 178.5,-63.93 185.5,-63.93"/>
</g>
<!-- ingress -->
<g id="node6" class="node">
<title>ingress</title>
<polygon fill="none" stroke="black" points="71.5,-249 16.5,-249 16.5,-213 71.5,-213 71.5,-249"/>
<text text-anchor="middle" x="44" y="-225.95" font-family="Times,serif" font-size="14.00">Ingress</text>
</g>
<!-- ingress&#45;&gt;dc01_master -->
<g id="edge5" class="edge">
<title>ingress&#45;&gt;dc01_master</title>
<path fill="none" stroke="black" d="M44,-201.04C44,-201.04 44,-106 44,-106 44,-106 134.23,-106 134.23,-106"/>
<polygon fill="black" stroke="black" points="40.5,-201.04 44,-211.04 47.5,-201.04 40.5,-201.04"/>
<polygon fill="black" stroke="black" points="134.23,-109.5 144.23,-106 134.23,-102.5 134.23,-109.5"/>
</g>
<!-- user -->
<g id="node7" class="node">
<title>user</title>
<ellipse fill="none" stroke="black" cx="44" cy="-382.82" rx="28.32" ry="28.32"/>
<text text-anchor="middle" x="44" y="-377.77" font-family="Times,serif" font-size="14.00">User</text>
</g>
<!-- user&#45;&gt;ingress -->
<g id="edge6" class="edge">
<title>user&#45;&gt;ingress</title>
<path fill="none" stroke="black" d="M44,-342.75C44,-342.75 44,-260.91 44,-260.91"/>
<polygon fill="black" stroke="black" points="40.5,-342.75 44,-352.75 47.5,-342.75 40.5,-342.75"/>
<polygon fill="black" stroke="black" points="47.5,-260.91 44,-250.91 40.5,-260.91 47.5,-260.91"/>
</g>
</g>
</svg>
